<svg class="svg-icon" style="width: 1em; height: 1em;vertical-align: middle;fill: currentColor;overflow: hidden;" viewBox="0 0 1024 1024" version="1.1" xmlns="http://www.w3.org/2000/svg"><path d="M510.1 511.4m-446.8 0a446.8 446.8 0 1 0 893.6 0 446.8 446.8 0 1 0-893.6 0Z" fill="#004349" /><path d="M688.4 401.5c-28.4-3.1-79.7-8.3-92.1 17-11.9 24.3-4.1 55 14.9 62.5 27.8 11.1 59.2-1 71.3-5.7-18.3 9.7-39.7 11.7-38.1 20.7 0.5 14.3 25.5 21.5 29.1 24.8-28.7-10.4-31.3-15.1-41.6-8.5-10.5 6.7-10.4 26.7-11.9 34.1 0-12.3 1.3-23.3-2.8-35-20.7-59.2-121.2-24-101.2 60.6 10.7 63.9 65.1 59.6 74.3 59.7 16.8 2.7 9.9-29.3 18.2-40 1.1 8.6 0.6 21.1 5.6 25.8 9.8-4.8 18.1-16.7 17.8-31.2 3.4 11.5-4.7 20.3 0.6 22 4 1.3 13.7 0.2 20.3 3.2-15.9-2-26.7 5.1-26.5 11.3 1.4 5.8 5.7 4.1 16.7 5.9-6.8 0.2-10.8 2.3-12.5 5.9-0.8 7.4 13.5 7.4 19.2 8.6-5.7 0.8-20.5 2.4-29.2 0.6-32.6-6.9-49.9 2.8-80.1-10.8-31.3-16.5-52.8-80.7-30.4-123.4-11.5-53-102-30.6-92.2 25.6-10-10.6 4.3-25.4-5.9-34.1-13.3 0.6-25.4 8.1-29.7 11.4 9.7-12.3 31.4-13.8 29.7-25.6-2.5-6.7-7.3-4.1-29.7-11.4 26.7-1 60.7 5 71.3-11.4 8.7-55.4-46.4-26-71.3-19.9 13.6-9.1 23.5-11.3 23.8-17-1.5-12.3-23.8-6.1-41.6-8.5 17.5-3 37.8-4.5 40.6-10.4 1.5-6.2-2.7-11.5-13.9-23.8 5.7 0.5 30.6 33.2 65.4 31.3 25.1-38-20.2-56-53.5-56.8 11.1-1.6 33.8 3.6 36.1-6.9 0.8-8.6-16.8-19.2-18.3-35.8 5.1 9.4 6.6 15.1 15.8 15.3 8.8-3 10.8-12.9 11-23.9 3.4 20.5 1.6 22.8 5.9 36.9 12.4 39.9 77.9 50.2 71.3 2.8-2.4-17.2-18.4-28.7-23.8-34.1 18.6 13.1 23.4 20.8 29.7 17.1 6.4-2.6-0.7-16 3-31.3 2.3 15.1 3.4 23.6 7.6 25.5 6.2 1.6 7.1-2.1 25.1-14.1-8.4 9.9-16.8 18.4-20.9 30.7-12.9 38.7 32.1 62.4 74.4 48.9 24.8-7.9 31-23 38.7-51.2-1.5 18.7-8.4 35 0 39.8 9.7 5.6 27.7 1.4 41.6 0-15.8 6-31.3 6.8-32.4 11.7-1.5 7 13.1 6.9 20.6 11.1zM566.5 256.6c-109-12.8-214.1 35.7-231.9 133.6-5.2 28.4-0.4 53.3-5.9 73.9-9.4 34.8-46.2 54.9-41.6 96.6 1.9 17 35.6 9.6 47.6 19.9-3.6 11.7-20 15.4-14.8 31.3 3.5 10.6 24.2 7.2 29.7 17.1-3 9.4-16.4 8.9-14.9 22.7 18.4 4.2 12.2 25.3 17.8 48.3 6.1 25.2 62.4 4.1 92.2 11.4 15.8 3.9 9.2 40.6 5.9 56.8 59.8 0.3 173 0.3 232.1 0 1.8-61.2-15.2-138.1 31.6-212.3 56.4-134.6-17.1-284-147.8-299.3z" fill="#FFFFFF" /></svg>